<svg xmlns="http://www.w3.org/2000/svg"><symbol id="adjust" viewBox="0 0 512 512"><path d="M8 256c0 136.966 111.033 248 248 248s248-111.034 248-248S392.966 8 256 8 8 119.033 8 256zm248 184V72c101.705 0 184 82.311 184 184 0 101.705-82.311 184-184 184z"/></symbol><symbol id="anchor" viewBox="0 0 576 512"><path d="M12.971 352h32.394C67.172 454.735 181.944 512 288 512c106.229 0 220.853-57.38 242.635-160h32.394c10.691 0 16.045-12.926 8.485-20.485l-67.029-67.029c-4.686-4.686-12.284-4.686-16.971 0l-67.029 67.029c-7.56 7.56-2.206 20.485 8.485 20.485h35.146c-20.29 54.317-84.963 86.588-144.117 94.015V256h52c6.627 0 12-5.373 12-12v-40c0-6.627-5.373-12-12-12h-52v-5.47c37.281-13.178 63.995-48.725 64-90.518C384.005 43.772 341.605.738 289.37.01 235.723-.739 192 42.525 192 96c0 41.798 26.716 77.35 64 90.53V192h-52c-6.627 0-12 5.373-12 12v40c0 6.627 5.373 12 12 12h52v190.015c-58.936-7.399-123.82-39.679-144.117-94.015h35.146c10.691 0 16.045-12.926 8.485-20.485l-67.029-67.029c-4.686-4.686-12.284-4.686-16.971 0L4.485 331.515C-3.074 339.074 2.28 352 12.971 352zM288 64c17.645 0 32 14.355 32 32s-14.355 32-32 32-32-14.355-32-32 14.355-32 32-32z"/></symbol><symbol id="angle-up" viewBox="0 0 320 512"><path d="M177 159.7l136 136c9.4 9.4 9.4 24.6 0 33.9l-22.6 22.6c-9.4 9.4-24.6 9.4-33.9 0L160 255.9l-96.4 96.4c-9.4 9.4-24.6 9.4-33.9 0L7 329.7c-9.4-9.4-9.4-24.6 0-33.9l136-136c9.4-9.5 24.6-9.5 34-.1z"/></symbol><symbol id="arrow-right" viewBox="0 0 451.846 451.847"><path d="M345.441 248.292L151.154 442.573c-12.359 12.365-32.397 12.365-44.75 0-12.354-12.354-12.354-32.391 0-44.744L278.318 225.92 106.409 54.017c-12.354-12.359-12.354-32.394 0-44.748 12.354-12.359 32.391-12.359 44.75 0l194.287 194.284c6.177 6.18 9.262 14.271 9.262 22.366 0 8.099-3.091 16.196-9.267 22.373z"/></symbol><symbol id="arrow" viewBox="0 0 100 100"><path d="M345.441 248.292L151.154 442.573c-12.359 12.365-32.397 12.365-44.75 0-12.354-12.354-12.354-32.391 0-44.744L278.318 225.92 106.409 54.017c-12.354-12.359-12.354-32.394 0-44.748 12.354-12.359 32.391-12.359 44.75 0l194.287 194.284c6.177 6.18 9.262 14.271 9.262 22.366 0 8.099-3.091 16.196-9.267 22.373z"/></symbol><symbol id="bars" viewBox="0 0 448 512"><path d="M16 132h416c8.837 0 16-7.163 16-16V76c0-8.837-7.163-16-16-16H16C7.163 60 0 67.163 0 76v40c0 8.837 7.163 16 16 16zm0 160h416c8.837 0 16-7.163 16-16v-40c0-8.837-7.163-16-16-16H16c-8.837 0-16 7.163-16 16v40c0 8.837 7.163 16 16 16zm0 160h416c8.837 0 16-7.163 16-16v-40c0-8.837-7.163-16-16-16H16c-8.837 0-16 7.163-16 16v40c0 8.837 7.163 16 16 16z"/></symbol><symbol id="calendar" viewBox="0 0 511.634 511.634"><path d="M482.513 83.942c-7.225-7.233-15.797-10.85-25.694-10.85h-36.541v-27.41c0-12.56-4.477-23.315-13.422-32.261C397.906 4.475 387.157 0 374.591 0h-18.268c-12.565 0-23.318 4.475-32.264 13.422-8.949 8.945-13.422 19.701-13.422 32.261v27.41h-109.63v-27.41c0-12.56-4.475-23.315-13.422-32.261C178.64 4.475 167.886 0 155.321 0H137.05c-12.562 0-23.317 4.475-32.264 13.422-8.945 8.945-13.421 19.701-13.421 32.261v27.41H54.823c-9.9 0-18.464 3.617-25.697 10.85-7.233 7.232-10.85 15.8-10.85 25.697v365.453c0 9.89 3.617 18.456 10.85 25.693 7.232 7.231 15.796 10.849 25.697 10.849h401.989c9.897 0 18.47-3.617 25.694-10.849 7.234-7.234 10.852-15.804 10.852-25.693V109.639c-.001-9.9-3.615-18.464-10.845-25.697zM137.047 475.088H54.823v-82.23h82.224v82.23zm0-100.498H54.823v-91.358h82.224v91.358zm0-109.639H54.823v-82.223h82.224v82.223zm-6.42-130.618c-1.809-1.809-2.712-3.946-2.712-6.423V45.686c0-2.474.903-4.617 2.712-6.423 1.809-1.809 3.946-2.712 6.423-2.712h18.271c2.474 0 4.617.903 6.423 2.712 1.809 1.807 2.714 3.949 2.714 6.423v82.224c0 2.478-.909 4.615-2.714 6.423-1.807 1.809-3.946 2.712-6.423 2.712H137.05c-2.474.001-4.614-.903-6.423-2.712zm116.056 340.755h-91.365v-82.23h91.365v82.23zm0-100.498h-91.365v-91.358h91.365v91.358zm0-109.639h-91.365v-82.223h91.365v82.223zm109.64 210.137h-91.364v-82.23h91.364v82.23zm0-100.498h-91.364v-91.358h91.364v91.358zm0-109.639h-91.364v-82.223h91.364v82.223zm-6.427-130.618c-1.807-1.809-2.707-3.946-2.707-6.423V45.686c0-2.474.9-4.617 2.707-6.423 1.808-1.809 3.949-2.712 6.427-2.712h18.268c2.478 0 4.617.903 6.427 2.712 1.808 1.807 2.707 3.949 2.707 6.423v82.224c0 2.478-.903 4.615-2.707 6.423-1.807 1.809-3.949 2.712-6.427 2.712h-18.268c-2.477.001-4.626-.903-6.427-2.712zm106.916 340.755h-82.228v-82.23h82.228v82.23zm0-100.498h-82.228v-91.358h82.228v91.358zm0-109.639h-82.228v-82.223h82.228v82.223z"/></symbol><symbol id="chevron-left" viewBox="0 0 320 512"><path d="M34.52 239.03L228.87 44.69c9.37-9.37 24.57-9.37 33.94 0l22.67 22.67c9.36 9.36 9.37 24.52.04 33.9L131.49 256l154.02 154.75c9.34 9.38 9.32 24.54-.04 33.9l-22.67 22.67c-9.37 9.37-24.57 9.37-33.94 0L34.52 272.97c-9.37-9.37-9.37-24.57 0-33.94z"/></symbol><symbol id="chevron-right" viewBox="0 0 320 512"><path d="M285.476 272.971L91.132 467.314c-9.373 9.373-24.569 9.373-33.941 0l-22.667-22.667c-9.357-9.357-9.375-24.522-.04-33.901L188.505 256 34.484 101.255c-9.335-9.379-9.317-24.544.04-33.901l22.667-22.667c9.373-9.373 24.569-9.373 33.941 0L285.475 239.03c9.373 9.372 9.373 24.568.001 33.941z"/></symbol><symbol id="cog" viewBox="0 0 512 512"><path d="M444.788 291.1l42.616 24.599c4.867 2.809 7.126 8.618 5.459 13.985-11.07 35.642-29.97 67.842-54.689 94.586a12.016 12.016 0 0 1-14.832 2.254l-42.584-24.595a191.577 191.577 0 0 1-60.759 35.13v49.182a12.01 12.01 0 0 1-9.377 11.718c-34.956 7.85-72.499 8.256-109.219.007-5.49-1.233-9.403-6.096-9.403-11.723v-49.184a191.555 191.555 0 0 1-60.759-35.13l-42.584 24.595a12.016 12.016 0 0 1-14.832-2.254c-24.718-26.744-43.619-58.944-54.689-94.586-1.667-5.366.592-11.175 5.459-13.985L67.212 291.1a193.48 193.48 0 0 1 0-70.199l-42.616-24.599c-4.867-2.809-7.126-8.618-5.459-13.985 11.07-35.642 29.97-67.842 54.689-94.586a12.016 12.016 0 0 1 14.832-2.254l42.584 24.595a191.577 191.577 0 0 1 60.759-35.13V25.759a12.01 12.01 0 0 1 9.377-11.718c34.956-7.85 72.499-8.256 109.219-.007 5.49 1.233 9.403 6.096 9.403 11.723v49.184a191.555 191.555 0 0 1 60.759 35.13l42.584-24.595a12.016 12.016 0 0 1 14.832 2.254c24.718 26.744 43.619 58.944 54.689 94.586 1.667 5.366-.592 11.175-5.459 13.985L444.788 220.9a193.485 193.485 0 0 1 0 70.2zM336 256c0-44.112-35.888-80-80-80s-80 35.888-80 80 35.888 80 80 80 80-35.888 80-80z"/></symbol><symbol id="heart-love" viewBox="0 0 91 91"><path d="M64.666 30.208c-2.195-1.816-5.014-2.814-7.936-2.814-3.375 0-6.642 1.342-8.962 3.686-.417.422-.808.875-1.175 1.367-2.841-3.781-7.588-5.721-12.283-4.863-3.896.707-6.959 2.848-9.098 6.359-3.018 4.957-3.265 9.738-.73 14.211 1.355 2.393 3.113 4.725 5.375 7.129 4.143 4.404 9.047 8.584 15.434 13.15.408.293.845.441 1.301.441.702 0 1.176-.355 1.411-.529 5.763-4.115 10.29-7.908 14.248-11.943 2.21-2.252 4.718-5.02 6.552-8.477.786-1.477 1.682-3.465 1.629-5.736-.118-4.887-2.057-8.918-5.766-11.981zm1.135 16.123c-1.633 3.074-3.937 5.611-5.977 7.689-3.66 3.732-7.845 7.264-13.238 11.158-5.869-4.246-10.412-8.145-14.252-12.229-2.073-2.203-3.674-4.32-4.895-6.475-1.933-3.41-1.718-6.832.678-10.764 1.612-2.648 3.9-4.258 6.802-4.785a9.298 9.298 0 0 1 1.674-.152c3.44 0 6.487 1.9 8.208 5.199l.292.551c.3.563.918.883 1.528.898a1.698 1.698 0 0 0 1.497-.951c.604-1.232 1.263-2.188 2.067-3.002 1.686-1.701 4.071-2.678 6.545-2.678 2.133 0 4.182.723 5.771 2.037 2.956 2.441 4.438 5.531 4.533 9.439.033 1.475-.604 2.881-1.233 4.065z"/></symbol><symbol id="likeblackheart" viewBox="0 0 32 32"><path d="M14.708 15.847C14.252 14.864 14 13.742 14 12.5s.252-2.489.708-3.659a10.976 10.976 0 0 1 1.929-3.205c.814-.938 1.784-1.723 2.86-2.271C20.574 2.814 21.758 2.5 23 2.5s2.426.252 3.503.707a9.02 9.02 0 0 1 4.789 4.79A8.943 8.943 0 0 1 32 11.5a8.96 8.96 0 0 1-2.637 6.364C28.55 18.678 17.077 29.044 16 29.5c-1.077-.456-12.55-10.822-13.364-11.636A8.978 8.978 0 0 1 0 11.5a8.978 8.978 0 0 1 2.636-6.364A8.974 8.974 0 0 1 9 2.5c1.243 0 2.427.314 3.503.863 1.077.55 2.046 1.334 2.861 2.272a11.02 11.02 0 0 1 1.929 3.205c.455 1.171.707 2.418.707 3.66s-.252 2.364-.707 3.347a7.315 7.315 0 0 1-1.929 2.518"/></symbol><symbol id="list-symbol" viewBox="0 0 612 612"><path d="M59.226 88.839C26.513 88.839 0 115.352 0 148.064s26.513 59.226 59.226 59.226 59.226-26.514 59.226-59.226-26.514-59.225-59.226-59.225zm0 157.935C26.513 246.774 0 273.288 0 306c0 32.713 26.513 59.226 59.226 59.226s59.226-26.513 59.226-59.226c0-32.712-26.514-59.226-59.226-59.226zm0 157.936C26.513 404.71 0 431.223 0 463.936c0 32.712 26.513 59.226 59.226 59.226s59.226-26.514 59.226-59.226c0-32.713-26.514-59.226-59.226-59.226zm138.193-217.162h375.096c21.815 0 39.484-17.669 39.484-39.484s-17.669-39.484-39.484-39.484H197.419c-21.815 0-39.484 17.669-39.484 39.484s17.669 39.484 39.484 39.484zm375.097 78.968H197.419c-21.815 0-39.484 17.669-39.484 39.484 0 21.814 17.669 39.484 39.484 39.484h375.096c21.815 0 39.484-17.67 39.484-39.484.001-21.815-17.668-39.484-39.483-39.484zm0 157.935H197.419c-21.815 0-39.484 17.67-39.484 39.484s17.669 39.483 39.484 39.483h375.096c21.815 0 39.484-17.669 39.484-39.483s-17.668-39.484-39.483-39.484z"/></symbol><symbol id="phone" viewBox="0 0 512 512"><path d="M493.397 24.615l-104-23.997c-11.314-2.611-22.879 3.252-27.456 13.931l-48 111.997a24 24 0 0 0 6.862 28.029l60.617 49.596c-35.973 76.675-98.938 140.508-177.249 177.248l-49.596-60.616a24 24 0 0 0-28.029-6.862l-111.997 48C3.873 366.516-1.994 378.08.618 389.397l23.997 104C27.109 504.204 36.748 512 48 512c256.087 0 464-207.532 464-464 0-11.176-7.714-20.873-18.603-23.385z"/></symbol><symbol id="search" viewBox="0 0 56.966 56.966"><path d="M55.146 51.887L41.588 37.786A22.926 22.926 0 0 0 46.984 23c0-12.682-10.318-23-23-23s-23 10.318-23 23 10.318 23 23 23c4.761 0 9.298-1.436 13.177-4.162l13.661 14.208c.571.593 1.339.92 2.162.92.779 0 1.518-.297 2.079-.837a3.004 3.004 0 0 0 .083-4.242zM23.984 6c9.374 0 17 7.626 17 17s-7.626 17-17 17-17-7.626-17-17 7.626-17 17-17z"/></symbol><symbol id="share" viewBox="0 0 64 64"><path d="M48 39.26a8.3 8.3 0 0 0-6.033 2.596L24.23 33.172c.061-.408.103-.821.103-1.246 0-.414-.04-.818-.098-1.215l17.711-8.589A8.302 8.302 0 0 0 48 24.741a8.333 8.333 0 1 0-8.333-8.333c0 .414.04.817.098 1.215l-17.711 8.589A8.3 8.3 0 0 0 16 23.593a8.333 8.333 0 0 0-8.333 8.333A8.332 8.332 0 0 0 16 40.259a8.3 8.3 0 0 0 6.033-2.596l17.737 8.684a8.378 8.378 0 0 0-.103 1.246c0 4.603 3.731 8.333 8.333 8.333s8.333-3.73 8.333-8.333A8.333 8.333 0 0 0 48 39.26z"/></symbol><symbol id="trash-alt" viewBox="0 0 448 512"><path d="M0 84V56c0-13.3 10.7-24 24-24h112l9.4-18.7c4-8.2 12.3-13.3 21.4-13.3h114.3c9.1 0 17.4 5.1 21.5 13.3L312 32h112c13.3 0 24 10.7 24 24v28c0 6.6-5.4 12-12 12H12C5.4 96 0 90.6 0 84zm416 56v324c0 26.5-21.5 48-48 48H80c-26.5 0-48-21.5-48-48V140c0-6.6 5.4-12 12-12h360c6.6 0 12 5.4 12 12zm-272 68c0-8.8-7.2-16-16-16s-16 7.2-16 16v224c0 8.8 7.2 16 16 16s16-7.2 16-16V208zm96 0c0-8.8-7.2-16-16-16s-16 7.2-16 16v224c0 8.8 7.2 16 16 16s16-7.2 16-16V208zm96 0c0-8.8-7.2-16-16-16s-16 7.2-16 16v224c0 8.8 7.2 16 16 16s16-7.2 16-16V208z"/></symbol><symbol id="user" viewBox="0 0 512 512"><path d="M256 0c88.366 0 160 71.634 160 160s-71.634 160-160 160S96 248.366 96 160 167.634 0 256 0zm183.283 333.821l-71.313-17.828c-74.923 53.89-165.738 41.864-223.94 0l-71.313 17.828C29.981 344.505 0 382.903 0 426.955V464c0 26.51 21.49 48 48 48h416c26.51 0 48-21.49 48-48v-37.045c0-44.052-29.981-82.45-72.717-93.134z"/></symbol></svg>